<svg width="64" height="64" viewBox="0 0 64 64" fill="none" xmlns="http://www.w3.org/2000/svg">
<g clip-path="url(#clip0_1_1037)">
<path d="M40.6422 30.961C40.8691 30.864 41.0463 30.724 41.1739 30.54C41.3014 30.3571 41.3658 30.1358 41.3658 29.8762C41.3658 29.5059 41.2348 29.2147 40.9718 29.0024C40.7088 28.7902 40.3554 28.6841 39.9084 28.6841H38.3867V31.1067H39.8655C40.1568 31.1067 40.4164 31.0581 40.6422 30.961Z" fill="#357EFE"/>
<path d="M40.9662 32.9976C40.7212 32.8847 40.4288 32.8271 40.0868 32.8271H38.3878V35.4597H40.0383C40.6174 35.4597 41.0441 35.3502 41.3195 35.1301C41.595 34.9111 41.7327 34.6051 41.7327 34.2134C41.7327 33.9289 41.6661 33.684 41.5329 33.4774C41.3997 33.2708 41.2112 33.1105 40.9662 32.9976Z" fill="#357EFE"/>
<path d="M31.9994 0C14.3267 0 0 14.3267 0 31.9994C0 49.6722 14.3267 63.9989 31.9994 63.9989C49.6722 63.9989 63.9989 49.6722 63.9989 31.9994C63.9989 14.3267 49.6733 0 31.9994 0ZM23.6841 33.8034L25.5885 26.5627H27.9953L29.8997 33.8192H29.9911L31.6642 26.5627H34.6094L31.3989 37.6123H28.825L26.8336 30.9112H26.7467L24.7554 37.6123H22.1871L18.9709 26.5627H21.9219L23.5892 33.8034H23.6807H23.6841ZM36.7069 55.2466C35.7519 55.3674 34.7946 55.4871 33.8373 55.6101C33.6566 55.6327 33.476 55.6643 33.2954 55.6914H30.6109C29.9268 55.6045 29.2404 55.5266 28.5575 55.4284C24.4404 54.838 20.7298 53.2665 17.4594 50.7062C13.1888 47.3625 10.2955 43.067 9.039 37.7816C7.18424 29.9821 8.8279 22.9356 13.9011 16.7098C14.3086 16.2097 14.7602 15.7446 15.2355 15.2129C14.4983 14.4802 13.7611 13.7465 13.0161 13.0059C12.1615 12.157 12.7632 10.6973 13.9677 10.6973H21.1203C21.8665 10.6973 22.4705 11.3013 22.4705 12.0475V19.0534C22.4705 20.2579 21.0131 20.8596 20.1631 20.0061L18.7045 18.5408C13.9948 22.9085 11.281 31.1392 14.4181 39.1001C17.5215 46.9741 26.4532 52.868 36.708 50.363V55.2444L36.7069 55.2466ZM35.7157 37.6134V26.5638H40.3239C41.1513 26.5638 41.8445 26.6812 42.4044 26.9149C42.9632 27.1486 43.3843 27.476 43.6665 27.8971C43.9487 28.3181 44.0898 28.8058 44.0898 29.359C44.0898 29.78 44.0018 30.1548 43.8257 30.4833C43.6496 30.813 43.4068 31.085 43.0975 31.3007C42.7882 31.5163 42.4304 31.6675 42.024 31.7533V31.8617C42.4699 31.8832 42.883 32.004 43.2623 32.223C43.6417 32.442 43.9464 32.7468 44.1767 33.1374C44.407 33.528 44.5222 33.9885 44.5222 34.5214C44.5222 35.1152 44.3709 35.6446 44.0684 36.1108C43.7658 36.5771 43.3289 36.944 42.7577 37.2115C42.1854 37.4791 41.4911 37.6134 40.6749 37.6134H35.7169H35.7157ZM55.3392 36.0228C54.5478 40.6806 52.5203 44.7288 49.312 48.1911C49.1653 48.3491 49.0163 48.506 48.8707 48.6652C48.8515 48.6866 48.8458 48.7205 48.8074 48.8097C49.5175 49.5175 50.231 50.2298 50.9557 50.9512C51.8283 51.8216 51.2131 53.314 49.9804 53.314H42.9192C42.156 53.314 41.5363 52.6953 41.5363 51.9311V44.967C41.5363 43.7353 43.0253 43.119 43.8956 43.9893L45.3327 45.4242C50.3066 40.7302 52.6355 32.4566 49.5581 24.7983C46.4323 17.018 37.5479 11.1252 27.2908 13.6099V8.67211C28.7347 8.54455 30.1864 8.29732 31.6359 8.30748C40.6309 8.3707 47.5499 12.2529 52.3352 19.8504C54.313 22.9909 55.3482 26.4837 55.618 30.1943C55.6282 30.3298 55.6711 30.4641 55.6982 30.5985V33.3767C55.5796 34.2583 55.4882 35.1456 55.3392 36.0228Z" fill="#357EFE"/>
</g>
<defs>
<clipPath id="clip0_1_1037">
<rect width="64" height="64" fill="white"/>
</clipPath>
</defs>
</svg>
