<svg width="24" height="25" viewBox="0 0 24 25" fill="none" xmlns="http://www.w3.org/2000/svg">
<path d="M16.707 9.79297C17.098 10.184 17.098 10.816 16.707 11.207L11.707 16.207C11.512 16.402 11.256 16.5 11 16.5C10.744 16.5 10.488 16.402 10.293 16.207L7.293 13.207C6.902 12.816 6.902 12.184 7.293 11.793C7.684 11.402 8.316 11.402 8.707 11.793L11 14.0861L15.293 9.79297C15.684 9.40197 16.316 9.40197 16.707 9.79297ZM22 12.5C22 18.014 17.514 22.5 12 22.5C6.486 22.5 2 18.014 2 12.5C2 6.986 6.486 2.5 12 2.5C17.514 2.5 22 6.986 22 12.5ZM20 12.5C20 8.089 16.411 4.5 12 4.5C7.589 4.5 4 8.089 4 12.5C4 16.911 7.589 20.5 12 20.5C16.411 20.5 20 16.911 20 12.5Z" fill="white" fill-opacity="0.8"/>
</svg>
