<svg width="32" height="23" viewBox="0 0 32 23" fill="none" xmlns="http://www.w3.org/2000/svg">
<g clip-path="url(#clip0_1_1492)">
<path d="M0 2.49358L0.257957 1.68054L9.92508 11.471L0.250443 21.2658C0.185328 21.0674 0.0934989 20.7865 0 20.5055V2.49358Z" fill="white"/>
<path d="M1.68883 0.183891C2.10623 0.123445 2.52364 0.0136216 2.93603 0.0136216C5.30022 -0.00340539 7.66441 0.00595943 10.0319 0.00595943C16.3509 0.00198648 22.6713 0 28.993 0C29.453 0 29.8988 0.0485268 30.3679 0.290309C29.918 0.742375 29.4931 1.16379 29.0757 1.59117C24.9968 5.77469 20.9156 9.95821 16.8323 14.1417C16.3314 14.6593 15.6769 14.6619 15.176 14.1485C10.7354 9.59724 6.2942 5.0448 1.85245 0.491227C1.79485 0.431633 1.73975 0.369485 1.68549 0.309039L1.68883 0.183891Z" fill="white"/>
<path d="M30.3755 22.7676C30.0023 22.8527 29.6834 22.9259 29.3612 22.9872C29.237 23.0014 29.1119 23.0046 28.9872 22.9966C20.3235 22.9966 11.6604 22.994 2.99781 22.9889C2.5612 22.9889 2.12543 22.8799 1.61369 22.8118L11.3359 12.9745L11.2758 12.8843C11.3501 12.9549 11.4269 13.023 11.4987 13.0963C12.2408 13.8574 13.0147 14.5895 13.7185 15.3864C14.9632 16.7962 17.0519 16.7783 18.2966 15.3753C19.0646 14.5112 19.9144 13.722 20.6783 12.949L30.3755 22.7676Z" fill="white"/>
<path d="M31.7829 1.70264C31.8489 2.04318 31.9883 2.43224 31.9891 2.8196C32.0036 8.60877 32.0036 14.3979 31.9891 20.1871C31.9891 20.5736 31.8481 20.9601 31.7721 21.35L22.0724 11.5246L31.7829 1.70264Z" fill="white"/>
</g>
<defs>
<clipPath id="clip0_1_1492">
<rect width="32" height="23" fill="white"/>
</clipPath>
</defs>
</svg>
