<svg width="24" height="25" viewBox="0 0 24 25" fill="none" xmlns="http://www.w3.org/2000/svg">
<path d="M12 2.5C6.486 2.5 2 6.986 2 12.5C2 18.014 6.486 22.5 12 22.5C17.514 22.5 22 18.014 22 12.5C22 6.986 17.514 2.5 12 2.5ZM12 20.5C7.589 20.5 4 16.911 4 12.5C4 8.089 7.589 4.5 12 4.5C16.411 4.5 20 8.089 20 12.5C20 16.911 16.411 20.5 12 20.5ZM13 16.5C13 17.052 12.552 17.5 12 17.5C11.448 17.5 11 17.052 11 16.5C11 15.948 11.448 15.5 12 15.5C12.552 15.5 13 15.948 13 16.5ZM13 8.5V12.5C13 13.053 12.552 13.5 12 13.5C11.448 13.5 11 13.053 11 12.5V8.5C11 7.947 11.448 7.5 12 7.5C12.552 7.5 13 7.947 13 8.5Z" fill="white" fill-opacity="0.8"/>
</svg>
