<svg width="64" height="64" viewBox="0 0 64 64" fill="none" xmlns="http://www.w3.org/2000/svg">
<g clip-path="url(#clip0_1_1033)">
<path d="M31.9994 0C14.3267 0 0 14.3267 0 31.9994C0 49.6722 14.3267 63.9989 31.9994 63.9989C49.6722 63.9989 63.9989 49.6722 63.9989 31.9994C63.9989 14.3267 49.6733 0 31.9994 0ZM21.8315 50.6317C19.2114 50.6351 16.5913 50.6351 13.9722 50.6317C13.0567 50.6306 12.5058 50.0741 12.5047 49.1506C12.5013 46.9346 12.5047 44.7186 12.5047 42.5026C12.5047 40.3001 12.5036 38.0988 12.5047 35.8964C12.5047 34.9086 13.0353 34.3724 14.014 34.3724C16.6195 34.3701 19.2261 34.3701 21.8315 34.3724C22.7764 34.3724 23.3206 34.921 23.3217 35.8738C23.3239 40.2922 23.3239 44.7096 23.3217 49.128C23.3217 50.0797 22.7753 50.6306 21.8327 50.6317H21.8315ZM35.2698 50.6317C32.7061 50.6317 30.1424 50.6328 27.5787 50.6317C26.5503 50.6317 26.0265 50.1011 26.0265 49.0648C26.0265 43.2488 26.0265 37.4339 26.0265 31.6179C26.0265 25.8583 26.0265 20.0998 26.0265 14.3403C26.0265 13.1764 26.5097 12.6887 27.6634 12.6887C30.1989 12.6887 32.7343 12.6887 35.2698 12.6887C36.3298 12.6887 36.8446 13.2069 36.8446 14.2759C36.8446 25.8651 36.8446 37.4542 36.8446 49.0434C36.8446 50.109 36.3265 50.6317 35.271 50.6328L35.2698 50.6317ZM50.3664 49.1168C50.3664 50.0899 49.8212 50.6306 48.8458 50.6317C46.2539 50.634 43.662 50.634 41.0712 50.6317C40.0913 50.6317 39.5506 50.0932 39.5506 49.1179C39.5494 45.1092 39.5506 41.1005 39.5506 37.0918C39.5506 33.1114 39.5506 29.1309 39.5506 25.1505C39.5506 24.0227 40.045 23.5305 41.1773 23.5305C43.7263 23.5305 46.2765 23.5305 48.8255 23.5305C49.8336 23.5305 50.3676 24.0611 50.3687 25.0647C50.3687 33.082 50.3698 41.1005 50.3687 49.1179L50.3664 49.1168Z" fill="#357EFE"/>
</g>
<defs>
<clipPath id="clip0_1_1033">
<rect width="64" height="64" fill="white"/>
</clipPath>
</defs>
</svg>
