<svg width="64" height="64" viewBox="0 0 64 64" fill="none" xmlns="http://www.w3.org/2000/svg">
<g clip-path="url(#clip0_1_1043)">
<path d="M35.9991 21.4997C35.8456 21.4726 35.6898 21.4511 35.5351 21.4489C33.3925 21.4139 31.2499 21.3834 29.1061 21.3552C29.053 21.3552 29.0011 21.3913 28.9266 21.4184V30.1966C29.0643 30.2101 29.1761 30.2293 29.2878 30.2293C31.0229 30.2271 32.7592 30.2553 34.492 30.2045C35.3037 30.1808 36.1176 30.0363 36.9191 29.8884C38.0909 29.6739 38.7886 28.9085 38.9647 27.7684C39.1092 26.8325 39.1825 25.8662 39.1216 24.9236C38.9714 22.6082 38.2772 21.8959 35.9991 21.5008V21.4997Z" fill="#357EFE"/>
<path d="M31.9994 0C14.3267 0 0 14.3267 0 31.9994C0 49.6722 14.3267 63.9989 31.9994 63.9989C49.6722 63.9989 63.9989 49.6722 63.9989 31.9994C63.9989 14.3267 49.6733 0 31.9994 0ZM47.3591 29.8636C46.7958 33.301 44.6328 35.2066 41.3342 35.9584C38.9398 36.5037 36.5003 36.5048 34.0653 36.5274C32.372 36.5432 30.6798 36.5308 28.921 36.5308V39.3745C29.1422 39.3745 29.3477 39.3745 29.5543 39.3745C31.8933 39.3745 34.2324 39.3722 36.5726 39.3756C37.4384 39.3767 37.5874 39.5336 37.5897 40.3984C37.5908 41.2563 37.5908 42.1143 37.5897 42.9711C37.5886 43.8392 37.4407 43.9984 36.5782 44.0006C34.2583 44.0063 31.9385 44.0029 29.6186 44.0029C29.4075 44.0029 29.1964 44.0029 28.8995 44.0029C28.8995 44.2546 28.8995 44.4601 28.8995 44.6667C28.8995 46.1478 28.9052 47.63 28.8961 49.1111C28.8916 49.8212 28.7663 49.9623 28.0946 49.9645C25.8143 49.9736 23.5328 49.9612 21.2524 49.9725C20.6823 49.9747 20.4554 49.7399 20.4645 49.1642C20.487 47.6831 20.4712 46.2008 20.4712 44.7197C20.4712 44.5086 20.4712 44.2987 20.4712 43.9927C19.532 43.9927 18.6447 43.9927 17.7574 43.9927C16.7715 43.9927 16.2786 43.4975 16.2786 42.5071C16.2786 41.7474 16.274 40.9865 16.2808 40.2268C16.2865 39.5765 16.4614 39.3869 17.1094 39.379C18.1988 39.3654 19.2893 39.3756 20.4227 39.3756V34.7867C19.3909 34.7867 18.3647 34.7867 17.3397 34.7867C16.3768 34.7867 16.2797 34.6873 16.2786 33.7086C16.2786 32.8506 16.2752 31.9927 16.2786 31.1358C16.2819 30.3953 16.4343 30.2384 17.1636 30.235C18.2349 30.2293 19.3051 30.2339 20.4667 30.2339V29.5238C20.4667 24.8841 20.4667 20.2443 20.4667 15.6057C20.4667 14.7026 20.5695 14.5852 21.4534 14.5502C25.9317 14.3707 30.4088 14.1506 34.8883 14.0388C37.2081 13.9813 39.5111 14.2398 41.7666 14.8753C44.6949 15.7006 46.4695 17.5926 47.1547 20.5187C47.8817 23.6163 47.8705 26.7433 47.3591 29.867V29.8636Z" fill="#357EFE"/>
</g>
<defs>
<clipPath id="clip0_1_1043">
<rect width="64" height="64" fill="white"/>
</clipPath>
</defs>
</svg>
