<svg width="80" height="86" viewBox="0 0 80 86" fill="none" xmlns="http://www.w3.org/2000/svg">
<g clip-path="url(#clip0_1_1024)">
<path d="M77.3094 59.267C74.3666 57.8184 71.526 56.1681 68.599 54.6881C67.7241 54.2464 67.4242 53.7576 67.4332 52.7844C67.4878 47.2459 67.4628 41.7051 67.4514 36.1665C67.4446 33.3972 65.4176 30.027 61.4385 30.2737C61.168 30.2894 60.8931 30.2737 60.5704 30.2737C60.5704 29.1166 60.6249 28.0807 60.559 27.0515C60.4386 25.1858 60.4659 23.2731 60.05 21.4658C57.5685 10.6757 50.9283 3.48011 40.0159 0.863312C29.1171 -1.75124 19.8727 1.64364 12.7213 10.151C8.76037 14.8622 6.95148 20.4164 6.92421 26.5312C6.91967 27.7533 6.92421 28.9776 6.92421 30.2782C6.41518 30.2782 5.99705 30.2782 5.57891 30.2782C3.66095 30.2782 2.20202 31.119 1.13396 32.6528C0.372685 33.7471 0.0340867 34.9781 0.0295418 36.2943C0.0181794 39.1937 0.011362 58.3162 0.0249968 62.8076C0.00227213 66.577 -0.0318149 70.3486 0.0749911 74.1157C0.177252 77.6989 2.55198 79.7977 6.16748 79.7977C22.9883 79.7977 39.8114 79.8022 56.6322 79.7843C57.2594 79.7843 57.6525 79.9569 58.0502 80.4525C59.9523 82.8271 62.2088 84.7892 65.0676 86.0023H66.4311C67.4105 85.4551 68.4445 84.9842 69.3558 84.3452C72.4577 82.1746 74.6529 79.2304 76.4572 75.988C78.5615 72.2097 79.8432 68.2049 79.9932 63.8593C80.0659 61.7223 79.3069 60.2536 77.3071 59.2692L77.3094 59.267ZM21.4203 6.96693C29.7989 1.87236 38.4979 2.0226 46.7129 7.37727C54.9392 12.7409 57.8071 20.7326 57.0344 30.2311H52.3168C52.3168 28.5 52.419 26.8205 52.3009 25.1544C51.6441 15.9183 43.92 8.47153 34.6892 8.11276C25.0949 7.74053 16.7867 14.3868 15.3255 23.6297C15.1596 24.6746 15.146 25.7464 15.1119 26.807C15.0778 27.9215 15.1051 29.0382 15.1051 30.2131H10.417C9.68526 20.4142 12.7372 12.2476 21.4226 6.96693H21.4203ZM48.7922 30.249H18.6524C17.214 20.0688 23.2519 12.7028 31.7941 11.6467C40.2613 10.6017 47.4469 16.0282 48.7467 24.3293C49.0444 26.233 48.7899 28.222 48.7899 30.2468L48.7922 30.249ZM54.4415 76.4185C38.2161 76.4185 21.9907 76.4141 5.76525 76.4298C4.76991 76.4298 4.09953 76.006 3.79048 75.1471C3.57005 74.5328 3.48369 73.8421 3.48142 73.1829C3.4587 69.6108 3.47006 66.0366 3.46324 62.4623C3.47688 57.583 3.46324 39.5659 3.46779 36.9469C3.46779 36.5567 3.46552 36.1598 3.51551 35.7741C3.69276 34.3928 4.52449 33.6506 5.88569 33.6506C24.4699 33.6506 43.0519 33.6506 61.6362 33.6506C62.7792 33.6506 63.4678 34.0991 63.8041 35.1664C63.9677 35.6889 64.0268 36.2652 64.0291 36.8168C64.045 42.2724 64.0291 47.728 64.0541 53.1835C64.0564 53.8181 63.8927 54.1679 63.2928 54.4774C60.2522 56.0448 57.2799 57.7512 54.2052 59.2535C52.1236 60.2693 51.376 61.8143 51.4896 63.9961C51.6282 66.642 52.0918 69.2184 53.0599 71.6872C53.678 73.2658 54.4165 74.7973 55.1301 76.4185H54.4461H54.4415ZM76.5663 63.8705C76.2232 69.4584 74.1257 74.026 70.9124 78.1519C69.6784 79.7372 68.2241 81.096 66.5084 82.1925C65.9425 82.5536 65.5244 82.5244 64.9744 82.1791C61.9657 80.2866 59.8773 77.598 58.1661 74.591C56.255 71.2298 55.0256 67.669 54.9392 63.7673C54.9233 62.9893 55.171 62.5767 55.8732 62.2156C58.966 60.6236 62.0316 58.9845 65.0881 57.3296C65.5721 57.0673 65.9334 57.0673 66.4129 57.3251C69.3467 58.9127 72.2781 60.5047 75.2528 62.0161C76.2254 62.5116 76.8731 63.0274 76.5663 63.8705Z" fill="#357EFE"/>
<path d="M27.3787 54.9213C31.5055 51.208 30.9192 45.6358 27.9105 42.5123C24.7313 39.2116 19.416 38.9089 15.8936 41.8867C14.212 43.3083 13.1826 45.1089 12.9031 47.2772C12.5009 50.3806 13.5871 52.966 15.9436 55.0985C15.6778 55.2599 15.4891 55.3743 15.3028 55.4909C11.6214 57.8274 9.39439 61.0541 9.05352 65.4266C8.84445 68.1062 10.7283 70.2185 13.428 70.2364C18.8524 70.2701 24.2745 70.2678 29.6989 70.2364C32.2509 70.223 34.0734 68.3461 34.0666 65.8437C34.0575 63.1395 33.1644 60.7021 31.4032 58.6727C30.2216 57.3117 28.7581 56.1882 27.3833 54.9213H27.3787ZM21.5794 43.1984C24.5268 43.2096 26.906 45.6022 26.8765 48.5262C26.8469 51.3874 24.3995 53.7351 21.4998 53.6858C18.5524 53.6365 16.2413 51.3067 16.2595 48.4051C16.2777 45.5192 18.6615 43.1895 21.5794 43.1984ZM29.3512 66.8707C26.7401 66.8774 24.1291 66.8729 21.5157 66.8729C18.9615 66.8729 16.405 66.8774 13.8507 66.8729C12.7099 66.8729 12.4509 66.5882 12.5122 65.4625C12.7099 61.8725 15.7459 58.3498 19.5023 57.352C22.9906 56.4259 26.9083 58.0449 29.1353 61.3344C30.0011 62.6148 30.5465 64.0072 30.6261 65.5522C30.6783 66.5523 30.3625 66.8707 29.3512 66.8729V66.8707Z" fill="#357EFE"/>
<path d="M38.1957 48.2302C40.6386 48.237 43.0792 48.2302 45.5221 48.2302C47.9355 48.2302 50.3488 48.2347 52.7645 48.2302C54.0461 48.228 54.8483 47.5531 54.8279 46.5149C54.8074 45.5036 54.028 44.8645 52.7849 44.8645C47.9286 44.86 43.0724 44.86 38.2161 44.8645C36.9503 44.8645 36.2209 45.4879 36.2163 46.5373C36.2118 47.5912 36.9435 48.2258 38.1957 48.2302Z" fill="#357EFE"/>
<path d="M48.1173 53.9302C44.8017 53.9235 41.4839 53.9235 38.1684 53.9302C36.9276 53.9325 36.1982 54.585 36.2163 55.6411C36.2322 56.6569 36.9549 57.287 38.1479 57.2937C39.8205 57.3049 41.493 57.296 43.1655 57.296C44.8085 57.296 46.4538 57.3027 48.0968 57.296C49.358 57.2892 50.0875 56.6703 50.092 55.6209C50.0988 54.5693 49.3671 53.9325 48.1173 53.9302Z" fill="#357EFE"/>
<path d="M69.4239 65.476C69.174 65.7047 68.9513 65.9603 68.7036 66.1913C67.2764 67.5098 65.8448 68.8238 64.3427 70.205C64.2086 70.0817 63.9609 69.8508 63.7132 69.622C63.4655 69.3933 63.2224 69.1556 62.9656 68.9359C62.0952 68.1847 61.0771 68.1869 60.3954 68.9359C59.7364 69.6602 59.8068 70.6266 60.6158 71.398C61.493 72.2344 62.3861 73.0573 63.2928 73.8623C64.2222 74.6897 65.0835 74.6538 65.988 73.7703C66.6538 73.1201 67.3037 72.4563 67.9582 71.7926C69.2649 70.4696 70.5852 69.1579 71.8691 67.8125C72.5918 67.0568 72.5599 66.0769 71.8691 65.4109C71.1874 64.7562 70.1875 64.7786 69.4239 65.476Z" fill="#357EFE"/>
</g>
<defs>
<clipPath id="clip0_1_1024">
<rect width="80" height="86" fill="white"/>
</clipPath>
</defs>
</svg>
