<svg width="80" height="80" viewBox="0 0 80 80" fill="none" xmlns="http://www.w3.org/2000/svg">
<g clip-path="url(#clip0_1_1012)">
<path d="M0 23.915C0.498619 21.5417 1.88106 19.6086 3.12663 17.605C5.85828 13.2086 8.62122 8.82985 11.3216 4.41584C13.1577 1.41643 15.7759 -0.00599021 19.2878 -0.000120516C33.0809 0.0272714 46.8741 0.0272714 60.6673 -0.000120516C64.1791 -0.00794677 66.7973 1.41643 68.6374 4.41193C71.7796 9.53226 74.9551 14.633 78.16 19.7162C79.3919 21.6688 80.0743 23.7213 79.9707 26.0515C79.8964 27.74 79.9316 29.4364 79.9609 31.1269C80.0117 33.96 79.0164 36.3059 76.8264 38.1274C76.7697 38.1744 76.7287 38.2448 76.7228 38.2507C77.4443 39.1546 78.3164 39.9529 78.8092 40.9429C79.3645 42.0562 79.8084 43.3241 79.8885 44.5528C80.0508 47.067 80.0137 49.6027 79.9022 52.1227C79.8573 53.1578 79.4877 54.2065 79.1142 55.1906C78.7642 56.1122 77.8354 56.435 76.9946 56.1063C76.1557 55.7796 75.7119 54.9245 76.0775 53.9952C76.6192 52.6197 76.6583 51.211 76.6368 49.7768C76.6094 48.0335 76.6896 46.2824 76.5429 44.5508C76.318 41.8977 74.3236 40.1192 71.6604 40.0097C71.4785 40.0018 71.2967 40.0057 71.1148 40.0057C50.3468 40.0057 29.5789 40.0057 8.81285 40.0057C6.09293 40.0057 4.17862 41.3577 3.51771 43.735C3.47665 43.8837 3.42972 44.0382 3.42776 44.1908C3.40039 46.7657 3.24005 49.3483 3.39648 51.9134C3.57832 54.9285 5.67448 56.6698 8.78547 56.6776C13.4177 56.6894 18.05 56.6815 22.6823 56.6815C26.9508 56.6815 31.2175 56.6815 35.486 56.6835C35.8243 56.6835 36.1665 56.6835 36.497 56.7363C37.2302 56.8537 37.7484 57.4387 37.8129 58.1724C37.8833 58.9609 37.4785 59.6438 36.7355 59.8668C36.3699 59.9764 35.969 59.9999 35.5818 59.9999C26.6302 60.0077 17.6765 60.0018 8.72485 60.0077C6.07729 60.0077 4.16298 61.3871 3.51184 63.7408C3.47078 63.8895 3.42581 64.0441 3.42385 64.1987C3.39452 66.7481 3.23614 69.3053 3.38083 71.8449C3.55486 74.905 5.6471 76.6737 8.78938 76.6796C15.6332 76.6894 22.4789 76.6835 29.3227 76.6835C29.5828 76.6835 29.8428 76.6757 30.1029 76.6933C31.0102 76.7481 31.5499 77.1687 31.7532 77.965C31.9468 78.7242 31.634 79.3757 30.8557 79.8414C30.7697 79.8923 30.6915 79.9529 30.6093 80.0077H7.18402C7.01977 79.9529 6.85748 79.8844 6.68932 79.8453C3.57441 79.1057 1.48999 77.2157 0.410627 74.2124C0.248332 73.7584 0.136876 73.2849 0.00195537 72.8212V63.9169C0.50644 61.7177 1.46262 59.7866 3.43363 58.329C2.86853 57.8027 2.32689 57.3605 1.86151 56.8498C0.821255 55.7013 0.416494 54.2534 0 52.8173V43.913C0.504485 41.7138 1.46066 39.7827 3.43167 38.3251C2.86657 37.7987 2.32493 37.3566 1.85956 36.8459C0.821255 35.7052 0.416494 34.2554 0 32.8193V23.915ZM39.9775 20.0097C29.6473 20.0097 19.319 20.0097 8.98883 20.0136C8.5215 20.0136 8.0483 20.0214 7.58879 20.0918C5.30296 20.444 3.55682 22.1736 3.4219 24.4843C3.28111 26.9222 3.32217 29.3738 3.36519 31.8175C3.37692 32.4965 3.5705 33.2223 3.86772 33.8347C4.89624 35.9537 6.72256 36.6933 8.98687 36.6913C29.6453 36.6796 50.3058 36.6855 70.9642 36.6855C71.1461 36.6855 71.3279 36.6913 71.5098 36.6815C74.1593 36.5544 76.3454 34.8561 76.494 32.5141C76.6602 29.8981 76.5644 27.2646 76.5683 24.6389C76.5683 24.3317 76.5058 24.0167 76.4236 23.7193C75.7784 21.393 73.8738 20.0136 71.2771 20.0116C60.8433 20.0057 50.4094 20.0097 39.9756 20.0097H39.9775ZM7.63376 16.6659H72.2998C72.1296 16.3783 72.0045 16.1572 71.8696 15.94C69.8516 12.6921 67.7985 9.46769 65.8275 6.19241C64.6367 4.21236 62.9648 3.31039 60.6692 3.32213C54.0601 3.35539 47.4509 3.33387 40.8418 3.33387C33.6089 3.33387 26.374 3.34365 19.1411 3.328C16.9746 3.32213 15.3555 4.19084 14.2194 6.05349C12.4205 9.0079 10.5746 11.933 8.74832 14.8698C8.39244 15.4411 8.04048 16.0124 7.63376 16.6679V16.6659Z" fill="#357EFE"/>
<path d="M40.6032 80C38.9959 79.6283 37.5137 79.0452 36.2154 77.9534C32.3085 74.6684 32.3809 68.2547 36.4715 65.1986C37.3671 64.5294 38.466 64.1166 39.5043 63.6607C39.8778 63.4964 40.085 63.3692 40.1496 62.9309C41.3717 54.6723 48.7649 49.0432 56.9873 50.1702C61.0036 50.72 64.2749 52.6648 66.7582 55.8853C67.1513 56.396 67.4895 56.7247 68.2521 56.7169C74.3294 56.6445 79.4114 61.3226 79.9218 67.3802C80.4321 73.4338 76.1029 78.9161 70.0745 79.8513C69.9279 79.8748 69.791 79.9491 69.6483 80H40.6032ZM55.1629 76.6777C59.4041 76.6777 63.6453 76.6777 67.8865 76.6777C67.9393 76.6777 67.9901 76.6777 68.0429 76.6777C73.4202 76.623 77.1979 72.3459 76.5233 67.0749C76.0013 62.9935 71.8285 59.5382 67.865 60.0724C66.2968 60.2837 65.3641 59.8611 64.5252 58.5189C62.1455 54.7094 57.3842 52.7138 52.9729 53.5199C47.621 54.5001 43.7729 58.785 43.3603 64.2281C43.2078 66.2434 42.9497 66.5114 40.9513 66.7306C38.1473 67.0397 36.0863 70.043 36.7922 72.794C37.4199 75.2377 39.3322 76.666 42.0502 76.6738C46.4204 76.6875 50.7926 76.6777 55.1629 76.6777Z" fill="#357EFE"/>
<path d="M55.0162 43.3281C59.2281 43.3281 63.44 43.3281 67.6518 43.3281C69.134 43.3281 69.924 43.8975 69.9494 44.9736C69.9768 46.0693 69.1497 46.6836 67.6382 46.6836C59.189 46.6836 50.7379 46.6836 42.2888 46.6836C40.8066 46.6836 40.0166 46.1143 39.9912 45.0382C39.9638 43.9425 40.7909 43.3281 42.3024 43.3281C46.5397 43.3281 50.779 43.3281 55.0162 43.3281Z" fill="#357EFE"/>
<path d="M11.6853 53.3144C8.91646 53.3301 6.67756 51.0937 6.68538 48.3232C6.69321 45.5958 8.90668 43.3672 11.6364 43.3398C14.3504 43.3124 16.6715 45.631 16.6578 48.3526C16.6421 51.0761 14.415 53.2988 11.6872 53.3144H11.6853ZM13.2984 48.3447C13.3024 47.4369 12.5945 46.7149 11.6872 46.7032C10.7662 46.6895 9.98409 47.4662 10.0056 48.3702C10.0271 49.2369 10.8132 50.0019 11.6716 49.9922C12.5534 49.9824 13.2926 49.233 13.2965 48.3447H13.2984Z" fill="#357EFE"/>
<path d="M11.6481 73.3144C8.87933 73.3085 6.65803 71.0546 6.68736 68.2841C6.71669 65.5547 8.96732 63.3222 11.6736 63.3399C14.3896 63.3575 16.6226 65.586 16.6539 68.3095C16.6871 71.035 14.4013 73.3203 11.6481 73.3125V73.3144ZM13.2965 68.3271C13.2926 67.4212 12.575 66.7051 11.6716 66.7012C10.7819 66.6954 10.0291 67.4232 10.0076 68.3095C9.98802 69.2017 10.7975 70.0117 11.6892 69.9922C12.575 69.9726 13.3024 69.2193 13.2965 68.3291V68.3271Z" fill="#357EFE"/>
<path d="M54.9615 23.3301C59.1734 23.3301 63.3852 23.3301 67.5971 23.3301C69.136 23.3301 69.9416 23.9053 69.9494 24.999C69.9572 26.0927 69.1399 26.6856 67.6147 26.6856C59.191 26.6856 50.7672 26.6856 42.3435 26.6856C40.8046 26.6856 39.999 26.1104 39.9912 25.0166C39.9834 23.9229 40.8007 23.3301 42.3259 23.3301C46.5378 23.3301 50.7496 23.3301 54.9615 23.3301Z" fill="#357EFE"/>
<path d="M54.9282 33.3301C50.7653 33.3301 46.6003 33.3301 42.4373 33.3301C42.2027 33.3301 41.9681 33.3359 41.7354 33.3222C40.7049 33.2635 40.0029 32.6022 39.9912 31.6905C39.9794 30.7767 40.6795 30.088 41.7021 30.0137C41.884 30 42.0658 30.0078 42.2477 30.0078C50.7301 30.0078 59.2144 30.0078 67.6968 30.0137C68.082 30.0137 68.4848 30.0391 68.8485 30.1506C69.5387 30.358 69.9963 31.0878 69.9435 31.7746C69.8868 32.524 69.3276 33.1618 68.5845 33.2772C68.2521 33.3301 67.9099 33.3261 67.5736 33.3281C63.3578 33.332 59.1421 33.3301 54.9263 33.3301H54.9282Z" fill="#357EFE"/>
<path d="M11.6814 33.3183C8.91256 33.332 6.67562 31.0976 6.6854 28.3252C6.69517 25.5997 8.92234 23.3575 11.6383 23.3438C14.3661 23.3301 16.6636 25.6271 16.6558 28.3604C16.648 31.0722 14.4071 33.3066 11.6814 33.3183ZM11.6657 26.7052C10.776 26.7012 10.0232 27.433 10.0056 28.3174C9.98801 29.2076 10.8034 30.0176 11.6911 29.9961C12.5769 29.9746 13.3004 29.2193 13.2945 28.3291C13.2887 27.4232 12.5711 26.7091 11.6657 26.7052Z" fill="#357EFE"/>
</g>
<defs>
<clipPath id="clip0_1_1012">
<rect width="80" height="80" fill="white"/>
</clipPath>
</defs>
</svg>
