<svg width="80" height="86" viewBox="0 0 80 86" fill="none" xmlns="http://www.w3.org/2000/svg">
<g clip-path="url(#clip0_1_1004)">
<path d="M0.018671 25.4476C0.018671 24.327 0.00704581 23.2087 0.018671 22.0881C0.0581967 18.9908 2.06703 16.6254 5.16166 16.202C17.2891 14.536 27.7192 9.36319 36.7799 1.32327C38.8004 -0.46926 41.2788 -0.441647 43.3528 1.41071C49.9931 7.33825 57.5239 11.7517 66.1056 14.2806C68.898 15.1043 71.7857 15.652 74.6641 16.1398C77.7541 16.6645 79.9791 18.8321 79.9954 21.8787C80.0605 33.6924 78.3888 45.2207 73.9061 56.2405C70.8882 63.6568 66.6171 70.2563 60.572 75.6454C54.8548 80.7422 48.1912 84.0719 40.758 85.9219C40.2279 86.0531 39.5978 86.0048 39.0608 85.8667C24.5153 82.1183 14.313 73.2154 7.80058 59.9682C4.56878 53.3918 2.50879 46.4403 1.41137 39.231C0.713858 34.6703 0.537155 30.036 0.018671 25.4476C0.0837722 25.4384 -0.0464301 25.4568 0.018671 25.4476ZM75.8359 25.5397C75.8359 24.4191 75.8499 23.3007 75.8313 22.1801C75.8127 21.0089 75.3035 20.4704 74.1363 20.2794C72.6506 20.0355 71.1579 19.8192 69.6885 19.4994C58.7725 17.1293 49.2351 12.1015 40.9115 4.77027C40.2303 4.17199 39.8443 4.13517 39.1421 4.75186C29.6746 13.0702 18.7632 18.4041 6.18235 20.2495C4.54553 20.4888 4.19677 20.9168 4.19677 22.5805C4.19212 27.6981 4.56878 32.788 5.38022 37.8435C6.54274 45.0757 8.50042 52.0733 11.8252 58.6451C17.6774 70.2149 26.6195 78.1811 39.3723 81.6627C39.7211 81.757 40.1326 81.826 40.4674 81.734C47.1519 79.9323 53.1226 76.8189 58.2075 72.127C64.7804 66.0591 68.9329 58.5208 71.6927 50.1588C74.3316 42.1626 75.5337 33.9248 75.8359 25.5374V25.5397Z" fill="#357EFE"/>
<path d="M39.5885 53.341C37.9493 53.2467 36.3985 52.9452 34.964 52.179C33.9991 51.6635 33.4829 49.5166 34.1642 48.6859C34.2944 48.5272 34.8593 48.5433 35.1104 48.6813C36.3915 49.3832 37.7029 50.0022 39.1955 49.9906C39.907 49.9837 40.665 49.9193 41.316 49.6662C42.9714 49.0219 43.2737 47.0269 41.9135 45.8948C41.4346 45.4944 40.851 45.2067 40.286 44.9191C39.3862 44.4612 38.4399 44.0884 37.5517 43.6075C34.9384 42.1969 33.8619 40.0293 34.392 37.3417C34.8826 34.8634 36.8194 33.2182 39.6931 32.9006C41.3253 32.7212 42.9226 32.8868 44.4757 33.4805C45.4127 33.8395 45.8196 34.4055 45.801 35.4249C45.7661 37.4636 45.7708 37.4291 43.9224 36.6974C42.8761 36.2832 41.7043 36.0899 40.572 36.0094C39.5397 35.9357 38.7375 36.6077 38.4911 37.4061C38.1981 38.3565 38.5004 39.2424 39.4629 39.8614C40.1628 40.3101 40.9417 40.6391 41.6903 41.0119C42.3878 41.3594 43.1063 41.6677 43.7945 42.0336C46.0684 43.2416 47.1914 45.1032 46.9286 47.6781C46.6682 50.2208 45.0267 52.1398 42.4832 52.8371C41.5438 53.0948 40.5534 53.1799 39.5885 53.341Z" fill="#357EFE"/>
<path d="M23.2155 53.2973C21.6461 53.2444 20.1535 52.9452 18.7608 52.2365C17.7122 51.7026 17.1751 49.6639 17.8098 48.6905C18.1446 48.1774 18.5189 48.495 18.8561 48.6905C20.0953 49.4085 21.3904 50.0045 22.8528 49.9814C23.6178 49.9699 24.4385 49.8871 25.129 49.5949C26.638 48.9552 26.9309 47.0246 25.6801 45.9799C25.0058 45.4184 24.1641 45.0457 23.3783 44.6269C22.4622 44.139 21.4764 43.764 20.5999 43.2186C18.491 41.9024 17.6773 39.9626 18.0539 37.5396C18.4097 35.2523 19.8093 33.8625 21.9926 33.2021C23.8177 32.6498 25.6568 32.712 27.475 33.2412C29.2955 33.7727 29.5885 34.2122 29.4722 36.0784C29.3885 37.4153 29.2513 37.4913 28.04 36.8677C26.8658 36.2648 25.6475 35.8552 24.2943 35.9726C23.1946 36.0669 22.4366 36.5892 22.1716 37.4613C21.8903 38.3887 22.2134 39.2539 23.19 39.889C23.8154 40.2963 24.5106 40.6 25.1825 40.9291C25.8312 41.2466 26.5078 41.5112 27.1448 41.8472C29.8791 43.2876 30.9695 45.2459 30.5813 47.9841C30.2186 50.5452 28.2818 52.4643 25.4476 53.0212C24.7129 53.1661 23.9572 53.2075 23.2109 53.2973H23.2155Z" fill="#357EFE"/>
<path d="M55.515 49.5948C57.5052 49.5948 59.3839 49.6248 61.2625 49.581C62.0042 49.5649 62.3483 49.8319 62.3669 50.5475C62.3669 50.6326 62.3855 50.7178 62.3925 50.8052C62.5575 52.6783 62.3622 52.8969 60.5115 52.8969C58.0191 52.8969 55.5266 52.9015 53.0342 52.8969C51.774 52.8946 51.4717 52.6115 51.4694 51.3943C51.4624 45.6577 51.4741 39.9189 51.4555 34.1823C51.4555 33.5426 51.6601 33.2044 52.3111 33.1606C52.5134 33.1468 52.711 33.0939 52.9133 33.0824C55.3569 32.9167 55.5127 33.0594 55.5127 35.4571V48.5387C55.5127 48.8516 55.5127 49.1622 55.5127 49.5994L55.515 49.5948Z" fill="#357EFE"/>
</g>
<defs>
<clipPath id="clip0_1_1004">
<rect width="80" height="86" fill="white"/>
</clipPath>
</defs>
</svg>
