<svg width="32" height="32" viewBox="0 0 32 32" fill="none" xmlns="http://www.w3.org/2000/svg">
<g clip-path="url(#clip0_1_994)">
<path d="M0 16.7536V15.0664C0.0195666 14.9553 0.0414812 14.8457 0.0579171 14.7346C0.160446 14.0358 0.219929 13.326 0.370983 12.6389C1.21391 8.77312 3.21362 5.61475 6.37402 3.24832C10.2529 0.345845 14.6155 -0.61356 19.3615 0.37793C23.1888 1.17378 26.3014 3.18024 28.6807 6.27365C31.2502 9.61436 32.3193 13.4183 31.9178 17.6042C31.593 20.984 30.2844 23.9718 28.0358 26.5252C25.5548 29.3424 22.4609 31.0945 18.7589 31.7519C18.157 31.8591 17.5458 31.9194 16.9392 32.0007H15.1892C14.7352 31.9499 14.2797 31.91 13.8273 31.8442C11.5731 31.5425 9.41186 30.7523 7.49479 29.5287C7.40837 29.4655 7.30753 29.425 7.20146 29.4108C7.09538 29.3966 6.98744 29.4091 6.88744 29.4473C5.05992 30.0428 3.22771 30.6211 1.39706 31.2096C1.29609 31.2417 1.19513 31.2714 1.05268 31.3144C1.69212 29.4121 2.30495 27.5699 2.93108 25.7325C3.01482 25.4852 3.00934 25.3013 2.84733 25.076C1.52043 23.1907 0.633294 21.0319 0.251235 18.7584C0.136966 18.0956 0.0821797 17.4219 0 16.7536ZM21.2258 25.0298L21.2438 24.9562C21.4312 24.9542 21.6183 24.9419 21.8042 24.9195C22.0618 24.8835 22.3158 24.8253 22.5634 24.7457C24.8151 23.9514 25.5829 22.8723 25.644 20.7735C25.6534 20.455 25.5344 20.239 25.244 20.1013C24.0528 19.5332 22.8679 18.9494 21.672 18.3914C21.0458 18.1011 20.6882 18.2208 20.2741 18.7827C19.9712 19.1935 19.673 19.6067 19.3584 20.0082C18.8661 20.6342 18.5233 20.7203 17.7892 20.4206C15.1109 19.3289 13.1362 17.4469 11.6554 14.9983C11.4559 14.6673 11.4809 14.3676 11.7282 14.0819C12.0147 13.7517 12.298 13.4175 12.5978 13.0998C13.0932 12.5763 13.2145 12.0418 12.8842 11.3477C12.3363 10.2044 11.8879 9.01649 11.3752 7.85753C11.297 7.68537 11.1232 7.478 10.9565 7.43809C10.1167 7.23541 9.24013 7.19002 8.53965 7.76519C6.98449 9.04153 6.50472 10.7475 6.79744 12.6953C6.95397 13.736 7.37113 14.6954 7.92526 15.5829C9.13488 17.5432 10.608 19.3282 12.3035 20.8878C14.2672 22.6814 16.5729 23.8317 19.1033 24.5657C19.8014 24.7606 20.5175 24.8756 21.2258 25.0298Z" fill="white"/>
</g>
<defs>
<clipPath id="clip0_1_994">
<rect width="32" height="32" fill="white"/>
</clipPath>
</defs>
</svg>
